ISO-10303-21;
HEADER;
/* Generated by software containing ST-Developer
 * from STEP Tools, Inc. (www.steptools.com) 
 */

FILE_DESCRIPTION(
/* description */ (
'Machined Lightsheet Holder. Attach disposable slips to the holder wit
h 0-80 screws'),
/* implementation_level */ '2;1');

FILE_NAME(
/* name */ 'LIGHTSHEETHOLDER V20M revA.stp',
/* time_stamp */ '2026-03-13T11:23:31-04:00',
/* author */ ('talbotj'),
/* organization */ (''),
/* preprocessor_version */ 'ST-DEVELOPER v20',
/* originating_system */ 'Autodesk Inventor 2025',
/* authorisation */ '');

FILE_SCHEMA (('AUTOMOTIVE_DESIGN { 1 0 10303 214 3 1 1 }'));
ENDSEC;

DATA;
#10=MECHANICAL_DESIGN_GEOMETRIC_PRESENTATION_REPRESENTATION('',(#13),#808);
#11=SHAPE_REPRESENTATION_RELATIONSHIP('SRR','None',#819,#12);
#12=ADVANCED_BREP_SHAPE_REPRESENTATION('',(#14),#807);
#13=STYLED_ITEM('',(#828),#14);
#14=MANIFOLD_SOLID_BREP('Solid1',#431);
#15=CONICAL_SURFACE('',#473,0.03075,0.785398163397446);
#16=CONICAL_SURFACE('',#479,0.03075,0.785398163397446);
#17=CONICAL_SURFACE('',#482,0.0665,0.785398163397448);
#18=CONICAL_SURFACE('',#490,0.02825,1.02974425867665);
#19=PLANE('',#461);
#20=PLANE('',#465);
#21=PLANE('',#466);
#22=PLANE('',#467);
#23=PLANE('',#469);
#24=PLANE('',#470);
#25=PLANE('',#471);
#26=PLANE('',#472);
#27=PLANE('',#476);
#28=PLANE('',#488);
#29=PLANE('',#491);
#30=PLANE('',#492);
#31=FACE_BOUND('',#63,.T.);
#32=FACE_BOUND('',#64,.T.);
#33=FACE_BOUND('',#76,.T.);
#34=FACE_BOUND('',#77,.T.);
#35=FACE_BOUND('',#84,.T.);
#36=B_SPLINE_CURVE_WITH_KNOTS('',3,(#642,#643,#644,#645,#646,#647,#648,
#649,#650,#651,#652,#653,#654,#655,#656,#657,#658,#659,#660,#661,#662,#663,
#664,#665,#666,#667,#668,#669,#670,#671,#672,#673,#674,#675),
 .UNSPECIFIED.,.T.,.F.,(4,2,2,2,2,2,2,2,2,2,2,2,2,2,2,2,4),(0.,0.0223856559171952,
0.0447713118343904,0.067926176558218,0.0910810412820457,0.114947468802926,
0.138813896323806,0.161699345138447,0.184584793953088,0.206876536708751,
0.229168279464415,0.253624538190362,0.278080796916309,0.30146564638998,
0.32485049586365,0.347006118858528,0.369161741853406),.UNSPECIFIED.);
#37=B_SPLINE_CURVE_WITH_KNOTS('',3,(#677,#678,#679,#680,#681,#682,#683,
#684,#685,#686,#687,#688,#689,#690,#691,#692,#693,#694,#695,#696,#697,#698,
#699,#700,#701,#702,#703,#704,#705,#706,#707,#708,#709,#710),
 .UNSPECIFIED.,.T.,.F.,(4,2,2,2,2,2,2,2,2,2,2,2,2,2,2,2,4),(0.,0.0222917427556635,
0.0445834855113269,0.069039744237274,0.0934960029632212,0.116880852436892,
0.140265701910562,0.16242132490544,0.184576947900318,0.206962603817513,
0.229348259734708,0.252503124458536,0.275657989182364,0.299524416703244,
0.323390844224124,0.346276293038765,0.369161741853406),.UNSPECIFIED.);
#38=FACE_OUTER_BOUND('',#61,.T.);
#39=FACE_OUTER_BOUND('',#62,.T.);
#40=FACE_OUTER_BOUND('',#65,.T.);
#41=FACE_OUTER_BOUND('',#66,.T.);
#42=FACE_OUTER_BOUND('',#67,.T.);
#43=FACE_OUTER_BOUND('',#68,.T.);
#44=FACE_OUTER_BOUND('',#69,.T.);
#45=FACE_OUTER_BOUND('',#70,.T.);
#46=FACE_OUTER_BOUND('',#71,.T.);
#47=FACE_OUTER_BOUND('',#72,.T.);
#48=FACE_OUTER_BOUND('',#73,.T.);
#49=FACE_OUTER_BOUND('',#74,.T.);
#50=FACE_OUTER_BOUND('',#75,.T.);
#51=FACE_OUTER_BOUND('',#78,.T.);
#52=FACE_OUTER_BOUND('',#79,.T.);
#53=FACE_OUTER_BOUND('',#80,.T.);
#54=FACE_OUTER_BOUND('',#81,.T.);
#55=FACE_OUTER_BOUND('',#82,.T.);
#56=FACE_OUTER_BOUND('',#83,.T.);
#57=FACE_OUTER_BOUND('',#85,.T.);
#58=FACE_OUTER_BOUND('',#86,.T.);
#59=FACE_OUTER_BOUND('',#87,.T.);
#60=FACE_OUTER_BOUND('',#88,.T.);
#61=EDGE_LOOP('',(#283,#284,#285,#286));
#62=EDGE_LOOP('',(#287,#288,#289,#290,#291,#292,#293,#294));
#63=EDGE_LOOP('',(#295));
#64=EDGE_LOOP('',(#296));
#65=EDGE_LOOP('',(#297,#298,#299,#300,#301,#302));
#66=EDGE_LOOP('',(#303,#304,#305,#306));
#67=EDGE_LOOP('',(#307,#308,#309,#310));
#68=EDGE_LOOP('',(#311,#312,#313,#314));
#69=EDGE_LOOP('',(#315,#316,#317,#318,#319,#320,#321,#322));
#70=EDGE_LOOP('',(#323,#324,#325,#326));
#71=EDGE_LOOP('',(#327,#328,#329,#330,#331,#332,#333,#334));
#72=EDGE_LOOP('',(#335,#336,#337,#338));
#73=EDGE_LOOP('',(#339,#340,#341,#342));
#74=EDGE_LOOP('',(#343,#344,#345,#346));
#75=EDGE_LOOP('',(#347,#348,#349,#350));
#76=EDGE_LOOP('',(#351));
#77=EDGE_LOOP('',(#352));
#78=EDGE_LOOP('',(#353,#354,#355,#356));
#79=EDGE_LOOP('',(#357,#358,#359,#360));
#80=EDGE_LOOP('',(#361,#362,#363,#364));
#81=EDGE_LOOP('',(#365,#366,#367,#368,#369));
#82=EDGE_LOOP('',(#370,#371,#372,#373,#374));
#83=EDGE_LOOP('',(#375,#376));
#84=EDGE_LOOP('',(#377));
#85=EDGE_LOOP('',(#378,#379,#380));
#86=EDGE_LOOP('',(#381,#382,#383,#384));
#87=EDGE_LOOP('',(#385,#386,#387,#388,#389,#390,#391,#392,#393,#394,#395,
#396));
#88=EDGE_LOOP('',(#397,#398,#399,#400));
#89=LINE('',#623,#128);
#90=LINE('',#626,#129);
#91=LINE('',#631,#130);
#92=LINE('',#635,#131);
#93=LINE('',#639,#132);
#94=LINE('',#713,#133);
#95=LINE('',#715,#134);
#96=LINE('',#717,#135);
#97=LINE('',#721,#136);
#98=LINE('',#725,#137);
#99=LINE('',#726,#138);
#100=LINE('',#729,#139);
#101=LINE('',#731,#140);
#102=LINE('',#732,#141);
#103=LINE('',#735,#142);
#104=LINE('',#737,#143);
#105=LINE('',#739,#144);
#106=LINE('',#743,#145);
#107=LINE('',#744,#146);
#108=LINE('',#747,#147);
#109=LINE('',#748,#148);
#110=LINE('',#751,#149);
#111=LINE('',#753,#150);
#112=LINE('',#754,#151);
#113=LINE('',#756,#152);
#114=LINE('',#757,#153);
#115=LINE('',#760,#154);
#116=LINE('',#761,#155);
#117=LINE('',#763,#156);
#118=LINE('',#768,#157);
#119=LINE('',#772,#158);
#120=LINE('',#773,#159);
#121=LINE('',#777,#160);
#122=LINE('',#780,#161);
#123=LINE('',#783,#162);
#124=LINE('',#788,#163);
#125=LINE('',#794,#164);
#126=LINE('',#800,#165);
#127=LINE('',#802,#166);
#128=VECTOR('',#500,0.393700787401575);
#129=VECTOR('',#503,0.393700787401575);
#130=VECTOR('',#508,0.393700787401575);
#131=VECTOR('',#511,0.393700787401575);
#132=VECTOR('',#514,0.393700787401575);
#133=VECTOR('',#519,0.393700787401575);
#134=VECTOR('',#520,0.393700787401575);
#135=VECTOR('',#521,0.393700787401575);
#136=VECTOR('',#526,0.393700787401575);
#137=VECTOR('',#531,0.393700787401575);
#138=VECTOR('',#532,0.393700787401575);
#139=VECTOR('',#535,0.393700787401575);
#140=VECTOR('',#536,0.393700787401575);
#141=VECTOR('',#537,0.393700787401575);
#142=VECTOR('',#540,0.393700787401575);
#143=VECTOR('',#541,0.393700787401575);
#144=VECTOR('',#542,0.393700787401575);
#145=VECTOR('',#545,0.393700787401575);
#146=VECTOR('',#546,0.393700787401575);
#147=VECTOR('',#549,0.393700787401575);
#148=VECTOR('',#550,0.393700787401575);
#149=VECTOR('',#553,0.393700787401575);
#150=VECTOR('',#554,0.393700787401575);
#151=VECTOR('',#555,0.393700787401575);
#152=VECTOR('',#556,0.393700787401575);
#153=VECTOR('',#557,0.393700787401575);
#154=VECTOR('',#560,0.393700787401575);
#155=VECTOR('',#561,0.393700787401575);
#156=VECTOR('',#564,0.393700787401575);
#157=VECTOR('',#569,0.03075);
#158=VECTOR('',#574,0.393700787401575);
#159=VECTOR('',#575,0.393700787401575);
#160=VECTOR('',#580,0.02325);
#161=VECTOR('',#583,0.03075);
#162=VECTOR('',#588,0.02325);
#163=VECTOR('',#593,0.0665);
#164=VECTOR('',#600,0.0565);
#165=VECTOR('',#609,0.02825);
#166=VECTOR('',#612,0.393700787401575);
#167=CIRCLE('',#454,0.05);
#168=CIRCLE('',#455,0.05);
#169=CIRCLE('',#457,0.165);
#170=CIRCLE('',#458,0.165);
#171=CIRCLE('',#459,0.165);
#172=CIRCLE('',#460,0.165);
#173=CIRCLE('',#462,0.05);
#174=CIRCLE('',#464,0.05);
#175=CIRCLE('',#468,0.15);
#176=CIRCLE('',#474,0.03825);
#177=CIRCLE('',#475,0.02325);
#178=CIRCLE('',#477,0.03825);
#179=CIRCLE('',#480,0.02325);
#180=CIRCLE('',#483,0.0765);
#181=CIRCLE('',#484,0.0565);
#182=CIRCLE('',#485,0.0565);
#183=CIRCLE('',#487,0.0565);
#184=CIRCLE('',#489,0.15);
#185=VERTEX_POINT('',#619);
#186=VERTEX_POINT('',#620);
#187=VERTEX_POINT('',#622);
#188=VERTEX_POINT('',#624);
#189=VERTEX_POINT('',#628);
#190=VERTEX_POINT('',#630);
#191=VERTEX_POINT('',#632);
#192=VERTEX_POINT('',#634);
#193=VERTEX_POINT('',#636);
#194=VERTEX_POINT('',#638);
#195=VERTEX_POINT('',#641);
#196=VERTEX_POINT('',#676);
#197=VERTEX_POINT('',#712);
#198=VERTEX_POINT('',#714);
#199=VERTEX_POINT('',#716);
#200=VERTEX_POINT('',#720);
#201=VERTEX_POINT('',#724);
#202=VERTEX_POINT('',#728);
#203=VERTEX_POINT('',#730);
#204=VERTEX_POINT('',#734);
#205=VERTEX_POINT('',#736);
#206=VERTEX_POINT('',#738);
#207=VERTEX_POINT('',#740);
#208=VERTEX_POINT('',#742);
#209=VERTEX_POINT('',#746);
#210=VERTEX_POINT('',#750);
#211=VERTEX_POINT('',#752);
#212=VERTEX_POINT('',#755);
#213=VERTEX_POINT('',#759);
#214=VERTEX_POINT('',#765);
#215=VERTEX_POINT('',#767);
#216=VERTEX_POINT('',#771);
#217=VERTEX_POINT('',#774);
#218=VERTEX_POINT('',#779);
#219=VERTEX_POINT('',#785);
#220=VERTEX_POINT('',#787);
#221=VERTEX_POINT('',#789);
#222=VERTEX_POINT('',#793);
#223=VERTEX_POINT('',#799);
#224=EDGE_CURVE('',#185,#186,#167,.T.);
#225=EDGE_CURVE('',#186,#187,#89,.T.);
#226=EDGE_CURVE('',#187,#188,#168,.T.);
#227=EDGE_CURVE('',#188,#185,#90,.T.);
#228=EDGE_CURVE('',#189,#188,#169,.T.);
#229=EDGE_CURVE('',#190,#189,#91,.T.);
#230=EDGE_CURVE('',#191,#190,#170,.T.);
#231=EDGE_CURVE('',#192,#191,#92,.T.);
#232=EDGE_CURVE('',#192,#193,#171,.T.);
#233=EDGE_CURVE('',#194,#193,#93,.T.);
#234=EDGE_CURVE('',#185,#194,#172,.T.);
#235=EDGE_CURVE('',#195,#195,#36,.T.);
#236=EDGE_CURVE('',#196,#196,#37,.T.);
#237=EDGE_CURVE('',#197,#187,#94,.T.);
#238=EDGE_CURVE('',#197,#198,#95,.T.);
#239=EDGE_CURVE('',#199,#198,#96,.T.);
#240=EDGE_CURVE('',#189,#199,#173,.T.);
#241=EDGE_CURVE('',#199,#200,#97,.T.);
#242=EDGE_CURVE('',#200,#190,#174,.T.);
#243=EDGE_CURVE('',#186,#201,#98,.T.);
#244=EDGE_CURVE('',#201,#197,#99,.T.);
#245=EDGE_CURVE('',#202,#193,#100,.T.);
#246=EDGE_CURVE('',#203,#202,#101,.T.);
#247=EDGE_CURVE('',#194,#203,#102,.T.);
#248=EDGE_CURVE('',#192,#204,#103,.T.);
#249=EDGE_CURVE('',#205,#204,#104,.F.);
#250=EDGE_CURVE('',#205,#206,#105,.T.);
#251=EDGE_CURVE('',#206,#207,#175,.T.);
#252=EDGE_CURVE('',#207,#208,#106,.T.);
#253=EDGE_CURVE('',#202,#208,#107,.F.);
#254=EDGE_CURVE('',#208,#209,#108,.T.);
#255=EDGE_CURVE('',#209,#203,#109,.F.);
#256=EDGE_CURVE('',#210,#207,#110,.T.);
#257=EDGE_CURVE('',#210,#211,#111,.T.);
#258=EDGE_CURVE('',#211,#206,#112,.T.);
#259=EDGE_CURVE('',#212,#205,#113,.T.);
#260=EDGE_CURVE('',#209,#212,#114,.T.);
#261=EDGE_CURVE('',#204,#213,#115,.T.);
#262=EDGE_CURVE('',#213,#212,#116,.F.);
#263=EDGE_CURVE('',#213,#191,#117,.T.);
#264=EDGE_CURVE('',#214,#214,#176,.T.);
#265=EDGE_CURVE('',#214,#215,#118,.T.);
#266=EDGE_CURVE('',#215,#215,#177,.T.);
#267=EDGE_CURVE('',#216,#201,#119,.T.);
#268=EDGE_CURVE('',#198,#216,#120,.T.);
#269=EDGE_CURVE('',#217,#217,#178,.T.);
#270=EDGE_CURVE('',#215,#196,#121,.T.);
#271=EDGE_CURVE('',#217,#218,#122,.T.);
#272=EDGE_CURVE('',#218,#218,#179,.T.);
#273=EDGE_CURVE('',#218,#195,#123,.T.);
#274=EDGE_CURVE('',#219,#219,#180,.T.);
#275=EDGE_CURVE('',#219,#220,#124,.T.);
#276=EDGE_CURVE('',#220,#221,#181,.T.);
#277=EDGE_CURVE('',#221,#220,#182,.T.);
#278=EDGE_CURVE('',#221,#222,#125,.T.);
#279=EDGE_CURVE('',#222,#222,#183,.T.);
#280=EDGE_CURVE('',#211,#210,#184,.T.);
#281=EDGE_CURVE('',#222,#223,#126,.T.);
#282=EDGE_CURVE('',#216,#200,#127,.T.);
#283=ORIENTED_EDGE('',*,*,#224,.T.);
#284=ORIENTED_EDGE('',*,*,#225,.T.);
#285=ORIENTED_EDGE('',*,*,#226,.T.);
#286=ORIENTED_EDGE('',*,*,#227,.T.);
#287=ORIENTED_EDGE('',*,*,#227,.F.);
#288=ORIENTED_EDGE('',*,*,#228,.F.);
#289=ORIENTED_EDGE('',*,*,#229,.F.);
#290=ORIENTED_EDGE('',*,*,#230,.F.);
#291=ORIENTED_EDGE('',*,*,#231,.F.);
#292=ORIENTED_EDGE('',*,*,#232,.T.);
#293=ORIENTED_EDGE('',*,*,#233,.F.);
#294=ORIENTED_EDGE('',*,*,#234,.F.);
#295=ORIENTED_EDGE('',*,*,#235,.F.);
#296=ORIENTED_EDGE('',*,*,#236,.F.);
#297=ORIENTED_EDGE('',*,*,#226,.F.);
#298=ORIENTED_EDGE('',*,*,#237,.F.);
#299=ORIENTED_EDGE('',*,*,#238,.T.);
#300=ORIENTED_EDGE('',*,*,#239,.F.);
#301=ORIENTED_EDGE('',*,*,#240,.F.);
#302=ORIENTED_EDGE('',*,*,#228,.T.);
#303=ORIENTED_EDGE('',*,*,#240,.T.);
#304=ORIENTED_EDGE('',*,*,#241,.T.);
#305=ORIENTED_EDGE('',*,*,#242,.T.);
#306=ORIENTED_EDGE('',*,*,#229,.T.);
#307=ORIENTED_EDGE('',*,*,#225,.F.);
#308=ORIENTED_EDGE('',*,*,#243,.T.);
#309=ORIENTED_EDGE('',*,*,#244,.T.);
#310=ORIENTED_EDGE('',*,*,#237,.T.);
#311=ORIENTED_EDGE('',*,*,#233,.T.);
#312=ORIENTED_EDGE('',*,*,#245,.F.);
#313=ORIENTED_EDGE('',*,*,#246,.F.);
#314=ORIENTED_EDGE('',*,*,#247,.F.);
#315=ORIENTED_EDGE('',*,*,#248,.T.);
#316=ORIENTED_EDGE('',*,*,#249,.F.);
#317=ORIENTED_EDGE('',*,*,#250,.T.);
#318=ORIENTED_EDGE('',*,*,#251,.T.);
#319=ORIENTED_EDGE('',*,*,#252,.T.);
#320=ORIENTED_EDGE('',*,*,#253,.F.);
#321=ORIENTED_EDGE('',*,*,#245,.T.);
#322=ORIENTED_EDGE('',*,*,#232,.F.);
#323=ORIENTED_EDGE('',*,*,#253,.T.);
#324=ORIENTED_EDGE('',*,*,#254,.T.);
#325=ORIENTED_EDGE('',*,*,#255,.T.);
#326=ORIENTED_EDGE('',*,*,#246,.T.);
#327=ORIENTED_EDGE('',*,*,#254,.F.);
#328=ORIENTED_EDGE('',*,*,#252,.F.);
#329=ORIENTED_EDGE('',*,*,#256,.F.);
#330=ORIENTED_EDGE('',*,*,#257,.T.);
#331=ORIENTED_EDGE('',*,*,#258,.T.);
#332=ORIENTED_EDGE('',*,*,#250,.F.);
#333=ORIENTED_EDGE('',*,*,#259,.F.);
#334=ORIENTED_EDGE('',*,*,#260,.F.);
#335=ORIENTED_EDGE('',*,*,#249,.T.);
#336=ORIENTED_EDGE('',*,*,#261,.T.);
#337=ORIENTED_EDGE('',*,*,#262,.T.);
#338=ORIENTED_EDGE('',*,*,#259,.T.);
#339=ORIENTED_EDGE('',*,*,#231,.T.);
#340=ORIENTED_EDGE('',*,*,#263,.F.);
#341=ORIENTED_EDGE('',*,*,#261,.F.);
#342=ORIENTED_EDGE('',*,*,#248,.F.);
#343=ORIENTED_EDGE('',*,*,#264,.T.);
#344=ORIENTED_EDGE('',*,*,#265,.T.);
#345=ORIENTED_EDGE('',*,*,#266,.T.);
#346=ORIENTED_EDGE('',*,*,#265,.F.);
#347=ORIENTED_EDGE('',*,*,#238,.F.);
#348=ORIENTED_EDGE('',*,*,#244,.F.);
#349=ORIENTED_EDGE('',*,*,#267,.F.);
#350=ORIENTED_EDGE('',*,*,#268,.F.);
#351=ORIENTED_EDGE('',*,*,#269,.F.);
#352=ORIENTED_EDGE('',*,*,#264,.F.);
#353=ORIENTED_EDGE('',*,*,#266,.F.);
#354=ORIENTED_EDGE('',*,*,#270,.T.);
#355=ORIENTED_EDGE('',*,*,#236,.T.);
#356=ORIENTED_EDGE('',*,*,#270,.F.);
#357=ORIENTED_EDGE('',*,*,#269,.T.);
#358=ORIENTED_EDGE('',*,*,#271,.T.);
#359=ORIENTED_EDGE('',*,*,#272,.T.);
#360=ORIENTED_EDGE('',*,*,#271,.F.);
#361=ORIENTED_EDGE('',*,*,#272,.F.);
#362=ORIENTED_EDGE('',*,*,#273,.T.);
#363=ORIENTED_EDGE('',*,*,#235,.T.);
#364=ORIENTED_EDGE('',*,*,#273,.F.);
#365=ORIENTED_EDGE('',*,*,#274,.T.);
#366=ORIENTED_EDGE('',*,*,#275,.T.);
#367=ORIENTED_EDGE('',*,*,#276,.T.);
#368=ORIENTED_EDGE('',*,*,#277,.T.);
#369=ORIENTED_EDGE('',*,*,#275,.F.);
#370=ORIENTED_EDGE('',*,*,#276,.F.);
#371=ORIENTED_EDGE('',*,*,#277,.F.);
#372=ORIENTED_EDGE('',*,*,#278,.T.);
#373=ORIENTED_EDGE('',*,*,#279,.F.);
#374=ORIENTED_EDGE('',*,*,#278,.F.);
#375=ORIENTED_EDGE('',*,*,#280,.F.);
#376=ORIENTED_EDGE('',*,*,#257,.F.);
#377=ORIENTED_EDGE('',*,*,#274,.F.);
#378=ORIENTED_EDGE('',*,*,#279,.T.);
#379=ORIENTED_EDGE('',*,*,#281,.T.);
#380=ORIENTED_EDGE('',*,*,#281,.F.);
#381=ORIENTED_EDGE('',*,*,#241,.F.);
#382=ORIENTED_EDGE('',*,*,#239,.T.);
#383=ORIENTED_EDGE('',*,*,#268,.T.);
#384=ORIENTED_EDGE('',*,*,#282,.T.);
#385=ORIENTED_EDGE('',*,*,#224,.F.);
#386=ORIENTED_EDGE('',*,*,#234,.T.);
#387=ORIENTED_EDGE('',*,*,#247,.T.);
#388=ORIENTED_EDGE('',*,*,#255,.F.);
#389=ORIENTED_EDGE('',*,*,#260,.T.);
#390=ORIENTED_EDGE('',*,*,#262,.F.);
#391=ORIENTED_EDGE('',*,*,#263,.T.);
#392=ORIENTED_EDGE('',*,*,#230,.T.);
#393=ORIENTED_EDGE('',*,*,#242,.F.);
#394=ORIENTED_EDGE('',*,*,#282,.F.);
#395=ORIENTED_EDGE('',*,*,#267,.T.);
#396=ORIENTED_EDGE('',*,*,#243,.F.);
#397=ORIENTED_EDGE('',*,*,#280,.T.);
#398=ORIENTED_EDGE('',*,*,#256,.T.);
#399=ORIENTED_EDGE('',*,*,#251,.F.);
#400=ORIENTED_EDGE('',*,*,#258,.F.);
#401=CYLINDRICAL_SURFACE('',#453,0.05);
#402=CYLINDRICAL_SURFACE('',#456,0.165);
#403=CYLINDRICAL_SURFACE('',#463,0.05);
#404=CYLINDRICAL_SURFACE('',#478,0.02325);
#405=CYLINDRICAL_SURFACE('',#481,0.02325);
#406=CYLINDRICAL_SURFACE('',#486,0.0565);
#407=CYLINDRICAL_SURFACE('',#493,0.15);
#408=ADVANCED_FACE('',(#38),#401,.T.);
#409=ADVANCED_FACE('',(#39,#31,#32),#402,.T.);
#410=ADVANCED_FACE('',(#40),#19,.T.);
#411=ADVANCED_FACE('',(#41),#403,.T.);
#412=ADVANCED_FACE('',(#42),#20,.T.);
#413=ADVANCED_FACE('',(#43),#21,.T.);
#414=ADVANCED_FACE('',(#44),#22,.T.);
#415=ADVANCED_FACE('',(#45),#23,.T.);
#416=ADVANCED_FACE('',(#46),#24,.T.);
#417=ADVANCED_FACE('',(#47),#25,.T.);
#418=ADVANCED_FACE('',(#48),#26,.T.);
#419=ADVANCED_FACE('',(#49),#15,.F.);
#420=ADVANCED_FACE('',(#50,#33,#34),#27,.T.);
#421=ADVANCED_FACE('',(#51),#404,.F.);
#422=ADVANCED_FACE('',(#52),#16,.F.);
#423=ADVANCED_FACE('',(#53),#405,.F.);
#424=ADVANCED_FACE('',(#54),#17,.F.);
#425=ADVANCED_FACE('',(#55),#406,.F.);
#426=ADVANCED_FACE('',(#56,#35),#28,.F.);
#427=ADVANCED_FACE('',(#57),#18,.F.);
#428=ADVANCED_FACE('',(#58),#29,.T.);
#429=ADVANCED_FACE('',(#59),#30,.T.);
#430=ADVANCED_FACE('',(#60),#407,.T.);
#431=CLOSED_SHELL('',(#408,#409,#410,#411,#412,#413,#414,#415,#416,#417,
#418,#419,#420,#421,#422,#423,#424,#425,#426,#427,#428,#429,#430));
#432=DERIVED_UNIT_ELEMENT(#434,1.);
#433=DERIVED_UNIT_ELEMENT(#813,-3.);
#434=(
CONVERSION_BASED_UNIT('gram',#436)
MASS_UNIT()
NAMED_UNIT(#810)
);
#435=(
MASS_UNIT()
NAMED_UNIT(*)
SI_UNIT(.KILO.,.GRAM.)
);
#436=MASS_MEASURE_WITH_UNIT(MASS_MEASURE(0.001),#435);
#437=DERIVED_UNIT((#432,#433));
#438=MEASURE_REPRESENTATION_ITEM('density measure',
POSITIVE_RATIO_MEASURE(2.7),#437);
#439=PROPERTY_DEFINITION_REPRESENTATION(#444,#441);
#440=PROPERTY_DEFINITION_REPRESENTATION(#445,#442);
#441=REPRESENTATION('material name',(#443),#807);
#442=REPRESENTATION('density',(#438),#807);
#443=DESCRIPTIVE_REPRESENTATION_ITEM('Aluminum 6061','Aluminum 6061');
#444=PROPERTY_DEFINITION('material property','material name',#821);
#445=PROPERTY_DEFINITION('material property','density of part',#821);
#446=DATE_TIME_ROLE('creation_date');
#447=APPLIED_DATE_AND_TIME_ASSIGNMENT(#448,#446,(#821));
#448=DATE_AND_TIME(#449,#450);
#449=CALENDAR_DATE(2021,27,9);
#450=LOCAL_TIME(0,0,0.,#451);
#451=COORDINATED_UNIVERSAL_TIME_OFFSET(0,0,.BEHIND.);
#452=AXIS2_PLACEMENT_3D('',#617,#494,#495);
#453=AXIS2_PLACEMENT_3D('',#618,#496,#497);
#454=AXIS2_PLACEMENT_3D('',#621,#498,#499);
#455=AXIS2_PLACEMENT_3D('',#625,#501,#502);
#456=AXIS2_PLACEMENT_3D('',#627,#504,#505);
#457=AXIS2_PLACEMENT_3D('',#629,#506,#507);
#458=AXIS2_PLACEMENT_3D('',#633,#509,#510);
#459=AXIS2_PLACEMENT_3D('',#637,#512,#513);
#460=AXIS2_PLACEMENT_3D('',#640,#515,#516);
#461=AXIS2_PLACEMENT_3D('',#711,#517,#518);
#462=AXIS2_PLACEMENT_3D('',#718,#522,#523);
#463=AXIS2_PLACEMENT_3D('',#719,#524,#525);
#464=AXIS2_PLACEMENT_3D('',#722,#527,#528);
#465=AXIS2_PLACEMENT_3D('',#723,#529,#530);
#466=AXIS2_PLACEMENT_3D('',#727,#533,#534);
#467=AXIS2_PLACEMENT_3D('',#733,#538,#539);
#468=AXIS2_PLACEMENT_3D('',#741,#543,#544);
#469=AXIS2_PLACEMENT_3D('',#745,#547,#548);
#470=AXIS2_PLACEMENT_3D('',#749,#551,#552);
#471=AXIS2_PLACEMENT_3D('',#758,#558,#559);
#472=AXIS2_PLACEMENT_3D('',#762,#562,#563);
#473=AXIS2_PLACEMENT_3D('',#764,#565,#566);
#474=AXIS2_PLACEMENT_3D('',#766,#567,#568);
#475=AXIS2_PLACEMENT_3D('',#769,#570,#571);
#476=AXIS2_PLACEMENT_3D('',#770,#572,#573);
#477=AXIS2_PLACEMENT_3D('',#775,#576,#577);
#478=AXIS2_PLACEMENT_3D('',#776,#578,#579);
#479=AXIS2_PLACEMENT_3D('',#778,#581,#582);
#480=AXIS2_PLACEMENT_3D('',#781,#584,#585);
#481=AXIS2_PLACEMENT_3D('',#782,#586,#587);
#482=AXIS2_PLACEMENT_3D('',#784,#589,#590);
#483=AXIS2_PLACEMENT_3D('',#786,#591,#592);
#484=AXIS2_PLACEMENT_3D('',#790,#594,#595);
#485=AXIS2_PLACEMENT_3D('',#791,#596,#597);
#486=AXIS2_PLACEMENT_3D('',#792,#598,#599);
#487=AXIS2_PLACEMENT_3D('',#795,#601,#602);
#488=AXIS2_PLACEMENT_3D('',#796,#603,#604);
#489=AXIS2_PLACEMENT_3D('',#797,#605,#606);
#490=AXIS2_PLACEMENT_3D('',#798,#607,#608);
#491=AXIS2_PLACEMENT_3D('',#801,#610,#611);
#492=AXIS2_PLACEMENT_3D('',#803,#613,#614);
#493=AXIS2_PLACEMENT_3D('',#804,#615,#616);
#494=DIRECTION('axis',(0.,0.,1.));
#495=DIRECTION('refdir',(1.,0.,0.));
#496=DIRECTION('center_axis',(0.,0.,-1.));
#497=DIRECTION('ref_axis',(-0.892261991697585,0.45151803748229,0.));
#498=DIRECTION('center_axis',(0.,-2.55059507587106E-16,1.));
#499=DIRECTION('ref_axis',(-0.892261991697585,0.45151803748229,0.));
#500=DIRECTION('',(0.,0.,1.));
#501=DIRECTION('center_axis',(0.,3.03812775257958E-16,-1.));
#502=DIRECTION('ref_axis',(-0.892261991697585,0.45151803748229,0.));
#503=DIRECTION('',(0.,0.,-1.));
#504=DIRECTION('center_axis',(0.,0.,-1.));
#505=DIRECTION('ref_axis',(-1.,0.,0.));
#506=DIRECTION('center_axis',(0.,-3.03812775257958E-16,1.));
#507=DIRECTION('ref_axis',(-1.,0.,0.));
#508=DIRECTION('',(0.,0.,1.));
#509=DIRECTION('center_axis',(0.,2.55059507587106E-16,-1.));
#510=DIRECTION('ref_axis',(-1.,0.,0.));
#511=DIRECTION('',(0.,0.,1.));
#512=DIRECTION('center_axis',(0.,0.,1.));
#513=DIRECTION('ref_axis',(-1.,0.,0.));
#514=DIRECTION('',(0.,0.,-1.));
#515=DIRECTION('center_axis',(0.,2.55059507587106E-16,-1.));
#516=DIRECTION('ref_axis',(-1.,0.,0.));
#517=DIRECTION('center_axis',(0.,-3.03812775257958E-16,1.));
#518=DIRECTION('ref_axis',(0.,1.,3.03812775257958E-16));
#519=DIRECTION('',(0.,1.,3.03812775257958E-16));
#520=DIRECTION('',(1.,0.,0.));
#521=DIRECTION('',(0.,-1.,-3.03812775257958E-16));
#522=DIRECTION('center_axis',(0.,3.03812775257958E-16,-1.));
#523=DIRECTION('ref_axis',(0.892261991697585,0.45151803748229,0.));
#524=DIRECTION('center_axis',(0.,0.,1.));
#525=DIRECTION('ref_axis',(0.892261991697585,0.45151803748229,0.));
#526=DIRECTION('',(0.,0.,-1.));
#527=DIRECTION('center_axis',(0.,-2.55059507587106E-16,1.));
#528=DIRECTION('ref_axis',(0.892261991697585,0.45151803748229,0.));
#529=DIRECTION('center_axis',(-1.,0.,0.));
#530=DIRECTION('ref_axis',(0.,0.,1.));
#531=DIRECTION('',(0.,-1.,-2.55059507587106E-16));
#532=DIRECTION('',(0.,-2.21875979180854E-16,1.));
#533=DIRECTION('center_axis',(-1.,-3.2865726589993E-16,0.));
#534=DIRECTION('ref_axis',(3.2865726589993E-16,-1.,0.));
#535=DIRECTION('',(-3.2865726589993E-16,1.,0.));
#536=DIRECTION('',(0.,0.,-1.));
#537=DIRECTION('',(3.2865726589993E-16,-1.,0.));
#538=DIRECTION('center_axis',(0.,0.,1.));
#539=DIRECTION('ref_axis',(1.,0.,0.));
#540=DIRECTION('',(1.87804151942817E-16,-1.,0.));
#541=DIRECTION('',(-0.707106781186548,-0.707106781186548,0.));
#542=DIRECTION('',(1.,0.,0.));
#543=DIRECTION('center_axis',(0.,0.,1.));
#544=DIRECTION('ref_axis',(1.,0.,0.));
#545=DIRECTION('',(1.,0.,0.));
#546=DIRECTION('',(-0.707106781186548,0.707106781186547,0.));
#547=DIRECTION('center_axis',(-0.707106781186547,-0.707106781186548,0.));
#548=DIRECTION('ref_axis',(0.,0.,1.));
#549=DIRECTION('',(0.,0.,1.));
#550=DIRECTION('',(0.707106781186548,-0.707106781186547,-1.80354307420944E-16));
#551=DIRECTION('center_axis',(0.,-1.,0.));
#552=DIRECTION('ref_axis',(1.,0.,0.));
#553=DIRECTION('',(0.,0.,1.));
#554=DIRECTION('',(1.,0.,0.));
#555=DIRECTION('',(0.,0.,1.));
#556=DIRECTION('',(0.,0.,-1.));
#557=DIRECTION('',(1.,1.76248257655759E-16,0.));
#558=DIRECTION('center_axis',(0.707106781186548,-0.707106781186548,0.));
#559=DIRECTION('ref_axis',(0.,0.,-1.));
#560=DIRECTION('',(0.,0.,1.));
#561=DIRECTION('',(0.707106781186548,0.707106781186548,1.80354307420945E-16));
#562=DIRECTION('center_axis',(1.,1.87804151942817E-16,0.));
#563=DIRECTION('ref_axis',(-1.87804151942817E-16,1.,0.));
#564=DIRECTION('',(-1.87804151942817E-16,1.,0.));
#565=DIRECTION('center_axis',(0.,-1.,0.));
#566=DIRECTION('ref_axis',(1.,0.,0.));
#567=DIRECTION('center_axis',(0.,-1.,-2.21875979180854E-16));
#568=DIRECTION('ref_axis',(1.,0.,0.));
#569=DIRECTION('',(0.707106781186546,0.707106781186549,8.65956056235491E-17));
#570=DIRECTION('center_axis',(0.,1.,2.21875979180854E-16));
#571=DIRECTION('ref_axis',(1.,0.,0.));
#572=DIRECTION('center_axis',(0.,-1.,-2.21875979180854E-16));
#573=DIRECTION('ref_axis',(0.,-2.21875979180854E-16,1.));
#574=DIRECTION('',(-1.,0.,0.));
#575=DIRECTION('',(0.,2.21875979180854E-16,-1.));
#576=DIRECTION('center_axis',(0.,-1.,-2.21875979180854E-16));
#577=DIRECTION('ref_axis',(1.,0.,0.));
#578=DIRECTION('center_axis',(0.,-1.,-1.10937989590427E-16));
#579=DIRECTION('ref_axis',(1.,0.,0.));
#580=DIRECTION('',(0.,1.,1.10937989590427E-16));
#581=DIRECTION('center_axis',(0.,-1.,0.));
#582=DIRECTION('ref_axis',(1.,0.,0.));
#583=DIRECTION('',(0.707106781186546,0.707106781186549,8.65956056235491E-17));
#584=DIRECTION('center_axis',(0.,1.,2.21875979180854E-16));
#585=DIRECTION('ref_axis',(1.,0.,0.));
#586=DIRECTION('center_axis',(0.,-1.,-1.10937989590427E-16));
#587=DIRECTION('ref_axis',(1.,0.,0.));
#588=DIRECTION('',(0.,1.,1.10937989590427E-16));
#589=DIRECTION('center_axis',(0.,0.,-1.));
#590=DIRECTION('ref_axis',(1.,0.,0.));
#591=DIRECTION('center_axis',(0.,0.,-1.));
#592=DIRECTION('ref_axis',(1.,0.,0.));
#593=DIRECTION('',(0.707106781186547,-8.65956056235493E-17,0.707106781186547));
#594=DIRECTION('center_axis',(0.,0.,1.));
#595=DIRECTION('ref_axis',(1.,0.,0.));
#596=DIRECTION('center_axis',(0.,0.,1.));
#597=DIRECTION('ref_axis',(1.,0.,0.));
#598=DIRECTION('center_axis',(0.,0.,-1.));
#599=DIRECTION('ref_axis',(-1.,0.,0.));
#600=DIRECTION('',(0.,0.,1.));
#601=DIRECTION('center_axis',(0.,0.,-1.));
#602=DIRECTION('ref_axis',(-1.,0.,0.));
#603=DIRECTION('center_axis',(0.,0.,1.));
#604=DIRECTION('ref_axis',(1.,0.,0.));
#605=DIRECTION('center_axis',(0.,0.,1.));
#606=DIRECTION('ref_axis',(1.,0.,0.));
#607=DIRECTION('center_axis',(0.,0.,-1.));
#608=DIRECTION('ref_axis',(-1.,0.,0.));
#609=DIRECTION('',(-0.857167300702112,1.04972719113862E-16,0.515038074910054));
#610=DIRECTION('center_axis',(1.,0.,0.));
#611=DIRECTION('ref_axis',(0.,0.,-1.));
#612=DIRECTION('',(0.,1.,2.55059507587106E-16));
#613=DIRECTION('center_axis',(0.,2.55059507587106E-16,-1.));
#614=DIRECTION('ref_axis',(0.,-1.,-2.55059507587106E-16));
#615=DIRECTION('center_axis',(0.,0.,1.));
#616=DIRECTION('ref_axis',(6.12323399573677E-17,1.,0.));
#617=CARTESIAN_POINT('',(0.,0.,0.));
#618=CARTESIAN_POINT('Origin',(-0.0681102362204725,0.0151375558463275,1.6));
#619=CARTESIAN_POINT('',(-0.0977233824032866,0.0554247941874608,0.347));
#620=CARTESIAN_POINT('',(-0.118110236220472,0.0151375558463275,0.347));
#621=CARTESIAN_POINT('Origin',(-0.0681102362204725,0.0151375558463275,0.347));
#622=CARTESIAN_POINT('',(-0.118110236220472,0.0151375558463275,0.544));
#623=CARTESIAN_POINT('',(-0.118110236220472,0.0151375558463275,1.6));
#624=CARTESIAN_POINT('',(-0.0977233824032866,0.0554247941874608,0.544));
#625=CARTESIAN_POINT('Origin',(-0.0681102362204725,0.0151375558463275,0.544));
#626=CARTESIAN_POINT('',(-0.0977233824032866,0.0554247941874608,1.6));
#627=CARTESIAN_POINT('Origin',(1.09273919746571E-17,-0.0775230923382791,
1.6));
#628=CARTESIAN_POINT('',(0.0977233824032865,0.0554247941874609,0.544));
#629=CARTESIAN_POINT('Origin',(1.09273919746571E-17,-0.0775230923382791,
0.544));
#630=CARTESIAN_POINT('',(0.0977233824032865,0.0554247941874609,0.347));
#631=CARTESIAN_POINT('',(0.0977233824032865,0.0554247941874608,1.6));
#632=CARTESIAN_POINT('',(0.0619999999999999,0.075385377015122,0.347));
#633=CARTESIAN_POINT('Origin',(1.09273919746571E-17,-0.0775230923382791,
0.347));
#634=CARTESIAN_POINT('',(0.0619999999999999,0.075385377015122,0.15));
#635=CARTESIAN_POINT('',(0.0619999999999999,0.075385377015122,1.6));
#636=CARTESIAN_POINT('',(-0.062,0.0753853770151219,0.15));
#637=CARTESIAN_POINT('Origin',(1.09273919746571E-17,-0.0775230923382791,
0.15));
#638=CARTESIAN_POINT('',(-0.062,0.0753853770151219,0.347));
#639=CARTESIAN_POINT('',(-0.062,0.0753853770151219,1.6));
#640=CARTESIAN_POINT('Origin',(1.09273919746571E-17,-0.0775230923382791,
0.347));
#641=CARTESIAN_POINT('',(0.0348602362204725,0.0837523364494096,0.484));
#642=CARTESIAN_POINT('Ctrl Pts',(0.0348602362204725,0.0837523364494096,
0.484));
#643=CARTESIAN_POINT('Ctrl Pts',(0.0348602362204725,0.0837523364494096,
0.486937750120367));
#644=CARTESIAN_POINT('Ctrl Pts',(0.0354517674671055,0.0836279744460826,
0.490065062318166));
#645=CARTESIAN_POINT('Ctrl Pts',(0.0378354298496494,0.0830850469763535,
0.495795057701325));
#646=CARTESIAN_POINT('Ctrl Pts',(0.0396272002481948,0.0826616208240483,
0.498397429352897));
#647=CARTESIAN_POINT('Ctrl Pts',(0.0437830010268108,0.0815769319770023,
0.502553230131513));
#648=CARTESIAN_POINT('Ctrl Pts',(0.0464421699462568,0.0808346616110192,
0.504347994119673));
#649=CARTESIAN_POINT('Ctrl Pts',(0.0521848911935538,0.0790361313603799,
0.506695261784));
#650=CARTESIAN_POINT('Ctrl Pts',(0.0552662260889362,0.0779757112848585,
0.50725));
#651=CARTESIAN_POINT('Ctrl Pts',(0.0610416444788464,0.0758024683040808,
0.50725));
#652=CARTESIAN_POINT('Ctrl Pts',(0.0641437298462254,0.074530665632418,0.506665146792273));
#653=CARTESIAN_POINT('Ctrl Pts',(0.0698546290646616,0.0719931080907111,
0.504302244944506));
#654=CARTESIAN_POINT('Ctrl Pts',(0.0724654297772312,0.0707308249998614,
0.502525271768416));
#655=CARTESIAN_POINT('Ctrl Pts',(0.0765498068942144,0.0686622344273242,
0.498440894651433));
#656=CARTESIAN_POINT('Ctrl Pts',(0.0783359788674438,0.0677021138010771,
0.495878605287361));
#657=CARTESIAN_POINT('Ctrl Pts',(0.0807424879601572,0.0663780430960447,
0.490161414589389));
#658=CARTESIAN_POINT('Ctrl Pts',(0.0813602362204725,0.0660231091515162,
0.487003339739454));
#659=CARTESIAN_POINT('Ctrl Pts',(0.0813602362204725,0.0660231091515162,
0.481074574441514));
#660=CARTESIAN_POINT('Ctrl Pts',(0.0807736395853502,0.0663599769762977,
0.477990927322043));
#661=CARTESIAN_POINT('Ctrl Pts',(0.0784773279007494,0.067625202310887,0.472384473500413));
#662=CARTESIAN_POINT('Ctrl Pts',(0.0767702338721104,0.0685451850216394,
0.469858707129348));
#663=CARTESIAN_POINT('Ctrl Pts',(0.072757412627694,0.0705880422276568,0.465692041757018));
#664=CARTESIAN_POINT('Ctrl Pts',(0.0701079353476945,0.0718758074652169,
0.463835310995244));
#665=CARTESIAN_POINT('Ctrl Pts',(0.0642873695441329,0.0744712759035359,
0.461363690589037));
#666=CARTESIAN_POINT('Ctrl Pts',(0.0611140908499704,0.075775207323681,0.46075));
#667=CARTESIAN_POINT('Ctrl Pts',(0.0552379780742554,0.0779863407831012,
0.46075));
#668=CARTESIAN_POINT('Ctrl Pts',(0.0521273528361892,0.0790557502099753,
0.461315792960555));
#669=CARTESIAN_POINT('Ctrl Pts',(0.0463390183391901,0.0808653233285902,
0.463706981811982));
#670=CARTESIAN_POINT('Ctrl Pts',(0.0436635826990376,0.0816098174175611,
0.465534601316043));
#671=CARTESIAN_POINT('Ctrl Pts',(0.0395381191080922,0.0826831437297442,
0.469723438307504));
#672=CARTESIAN_POINT('Ctrl Pts',(0.0377788897246689,0.0830981833535943,
0.472310453124442));
#673=CARTESIAN_POINT('Ctrl Pts',(0.0354397638999459,0.0836304426082794,
0.477995096375824));
#674=CARTESIAN_POINT('Ctrl Pts',(0.0348602362204725,0.0837523364494096,
0.481092437927181));
#675=CARTESIAN_POINT('Ctrl Pts',(0.0348602362204725,0.0837523364494096,
0.484));
#676=CARTESIAN_POINT('',(-0.0813602362204725,0.0660231091515162,0.407));
#677=CARTESIAN_POINT('Ctrl Pts',(-0.0813602362204725,0.0660231091515162,
0.407));
#678=CARTESIAN_POINT('Ctrl Pts',(-0.0813602362204725,0.0660231091515162,
0.409925425558486));
#679=CARTESIAN_POINT('Ctrl Pts',(-0.0807736395853501,0.0663599769762977,
0.413009072677957));
#680=CARTESIAN_POINT('Ctrl Pts',(-0.0784773279007493,0.0676252023108871,
0.418615526499587));
#681=CARTESIAN_POINT('Ctrl Pts',(-0.0767702338721104,0.0685451850216394,
0.421141292870652));
#682=CARTESIAN_POINT('Ctrl Pts',(-0.072757412627694,0.0705880422276568,
0.425307958242982));
#683=CARTESIAN_POINT('Ctrl Pts',(-0.0701079353476945,0.071875807465217,
0.427164689004755));
#684=CARTESIAN_POINT('Ctrl Pts',(-0.0642873695441329,0.0744712759035359,
0.429636309410963));
#685=CARTESIAN_POINT('Ctrl Pts',(-0.0611140908499703,0.075775207323681,
0.43025));
#686=CARTESIAN_POINT('Ctrl Pts',(-0.0552379780742554,0.0779863407831012,
0.43025));
#687=CARTESIAN_POINT('Ctrl Pts',(-0.0521273528361892,0.0790557502099753,
0.429684207039445));
#688=CARTESIAN_POINT('Ctrl Pts',(-0.0463390183391901,0.0808653233285902,
0.427293018188017));
#689=CARTESIAN_POINT('Ctrl Pts',(-0.0436635826990376,0.0816098174175611,
0.425465398683957));
#690=CARTESIAN_POINT('Ctrl Pts',(-0.0395381191080922,0.0826831437297442,
0.421276561692495));
#691=CARTESIAN_POINT('Ctrl Pts',(-0.037778889724669,0.0830981833535943,
0.418689546875558));
#692=CARTESIAN_POINT('Ctrl Pts',(-0.0354397638999459,0.0836304426082795,
0.413004903624176));
#693=CARTESIAN_POINT('Ctrl Pts',(-0.0348602362204725,0.0837523364494096,
0.409907562072819));
#694=CARTESIAN_POINT('Ctrl Pts',(-0.0348602362204725,0.0837523364494096,
0.404062249879633));
#695=CARTESIAN_POINT('Ctrl Pts',(-0.0354517674671054,0.0836279744460826,
0.400934937681834));
#696=CARTESIAN_POINT('Ctrl Pts',(-0.0378354298496493,0.0830850469763536,
0.395204942298675));
#697=CARTESIAN_POINT('Ctrl Pts',(-0.0396272002481948,0.0826616208240483,
0.392602570647103));
#698=CARTESIAN_POINT('Ctrl Pts',(-0.0437830010268108,0.0815769319770023,
0.388446769868487));
#699=CARTESIAN_POINT('Ctrl Pts',(-0.0464421699462566,0.0808346616110192,
0.386652005880327));
#700=CARTESIAN_POINT('Ctrl Pts',(-0.0521848911935536,0.0790361313603799,
0.384304738215999));
#701=CARTESIAN_POINT('Ctrl Pts',(-0.0552662260889362,0.0779757112848585,
0.38375));
#702=CARTESIAN_POINT('Ctrl Pts',(-0.0610416444788464,0.0758024683040808,
0.38375));
#703=CARTESIAN_POINT('Ctrl Pts',(-0.0641437298462255,0.074530665632418,
0.384334853207727));
#704=CARTESIAN_POINT('Ctrl Pts',(-0.0698546290646616,0.071993108090711,
0.386697755055494));
#705=CARTESIAN_POINT('Ctrl Pts',(-0.0724654297772312,0.0707308249998614,
0.388474728231584));
#706=CARTESIAN_POINT('Ctrl Pts',(-0.0765498068942144,0.0686622344273242,
0.392559105348568));
#707=CARTESIAN_POINT('Ctrl Pts',(-0.0783359788674439,0.067702113801077,
0.395121394712639));
#708=CARTESIAN_POINT('Ctrl Pts',(-0.0807424879601573,0.0663780430960446,
0.400838585410611));
#709=CARTESIAN_POINT('Ctrl Pts',(-0.0813602362204725,0.0660231091515162,
0.403996660260546));
#710=CARTESIAN_POINT('Ctrl Pts',(-0.0813602362204725,0.0660231091515162,
0.407));
#711=CARTESIAN_POINT('Origin',(0.,-0.137740157480315,0.544));
#712=CARTESIAN_POINT('',(-0.118110236220472,-0.137740157480315,0.544));
#713=CARTESIAN_POINT('',(-0.118110236220472,0.15,0.544));
#714=CARTESIAN_POINT('',(0.118110236220472,-0.137740157480315,0.544));
#715=CARTESIAN_POINT('',(0.,-0.137740157480315,0.544));
#716=CARTESIAN_POINT('',(0.118110236220472,0.0151375558463275,0.544));
#717=CARTESIAN_POINT('',(0.118110236220472,0.15,0.544));
#718=CARTESIAN_POINT('Origin',(0.0681102362204724,0.0151375558463275,0.544));
#719=CARTESIAN_POINT('Origin',(0.0681102362204724,0.0151375558463275,1.6));
#720=CARTESIAN_POINT('',(0.118110236220472,0.0151375558463275,0.347));
#721=CARTESIAN_POINT('',(0.118110236220472,0.0151375558463275,1.6));
#722=CARTESIAN_POINT('Origin',(0.0681102362204724,0.0151375558463275,0.347));
#723=CARTESIAN_POINT('Origin',(-0.118110236220472,0.00612992125984264,0.4455));
#724=CARTESIAN_POINT('',(-0.118110236220472,-0.137740157480315,0.347));
#725=CARTESIAN_POINT('',(-0.118110236220472,-0.192740157480315,0.347));
#726=CARTESIAN_POINT('',(-0.118110236220472,-0.137740157480315,0.544));
#727=CARTESIAN_POINT('Origin',(-0.0620000000000001,0.15,0.15));
#728=CARTESIAN_POINT('',(-0.062,-0.072740157480315,0.15));
#729=CARTESIAN_POINT('',(-0.062,0.0918149606299212,0.15));
#730=CARTESIAN_POINT('',(-0.062,-0.072740157480315,0.347));
#731=CARTESIAN_POINT('',(-0.062,-0.072740157480315,0.075));
#732=CARTESIAN_POINT('',(-0.0620000000000001,0.15,0.347));
#733=CARTESIAN_POINT('Origin',(0.,0.0336299212598425,0.15));
#734=CARTESIAN_POINT('',(0.062,-0.0727401574803149,0.15));
#735=CARTESIAN_POINT('',(0.062,-0.0245551181102362,0.15));
#736=CARTESIAN_POINT('',(0.052,-0.082740157480315,0.15));
#737=CARTESIAN_POINT('',(0.0705925196850393,-0.0641476377952756,0.15));
#738=CARTESIAN_POINT('',(0.125116211340228,-0.082740157480315,0.15));
#739=CARTESIAN_POINT('',(-0.125116211340228,-0.082740157480315,0.15));
#740=CARTESIAN_POINT('',(-0.125116211340228,-0.082740157480315,0.15));
#741=CARTESIAN_POINT('Origin',(0.,0.,0.15));
#742=CARTESIAN_POINT('',(-0.052,-0.082740157480315,0.15));
#743=CARTESIAN_POINT('',(-0.125116211340228,-0.082740157480315,0.15));
#744=CARTESIAN_POINT('',(-0.0705925196850393,-0.0641476377952756,0.15));
#745=CARTESIAN_POINT('Origin',(-0.057,-0.077740157480315,0.075));
#746=CARTESIAN_POINT('',(-0.052,-0.082740157480315,0.347));
#747=CARTESIAN_POINT('',(-0.052,-0.082740157480315,0.075));
#748=CARTESIAN_POINT('',(-0.0996850393700787,-0.0350551181102363,0.347));
#749=CARTESIAN_POINT('Origin',(-0.125116211340228,-0.082740157480315,0.));
#750=CARTESIAN_POINT('',(-0.125116211340228,-0.082740157480315,0.));
#751=CARTESIAN_POINT('',(-0.125116211340228,-0.082740157480315,0.));
#752=CARTESIAN_POINT('',(0.125116211340228,-0.082740157480315,0.));
#753=CARTESIAN_POINT('',(-0.125116211340228,-0.082740157480315,0.));
#754=CARTESIAN_POINT('',(0.125116211340228,-0.082740157480315,0.));
#755=CARTESIAN_POINT('',(0.052,-0.0827401574803149,0.347));
#756=CARTESIAN_POINT('',(0.052,-0.082740157480315,0.075));
#757=CARTESIAN_POINT('',(-0.062,-0.082740157480315,0.347));
#758=CARTESIAN_POINT('Origin',(0.057,-0.077740157480315,0.075));
#759=CARTESIAN_POINT('',(0.062,-0.0727401574803149,0.347));
#760=CARTESIAN_POINT('',(0.062,-0.0727401574803149,0.075));
#761=CARTESIAN_POINT('',(0.0996850393700787,-0.0350551181102362,0.347));
#762=CARTESIAN_POINT('Origin',(0.062,-0.0827401574803149,0.15));
#763=CARTESIAN_POINT('',(0.062,-0.0827401574803149,0.347));
#764=CARTESIAN_POINT('Origin',(-0.0581102362204725,-0.130240157480315,0.407));
#765=CARTESIAN_POINT('',(-0.0963602362204725,-0.137740157480315,0.407));
#766=CARTESIAN_POINT('Origin',(-0.0581102362204725,-0.137740157480315,0.407));
#767=CARTESIAN_POINT('',(-0.0813602362204725,-0.122740157480315,0.407));
#768=CARTESIAN_POINT('',(-0.0888602362204725,-0.130240157480315,0.407));
#769=CARTESIAN_POINT('Origin',(-0.0581102362204725,-0.122740157480315,0.407));
#770=CARTESIAN_POINT('Origin',(0.,-0.137740157480315,0.347));
#771=CARTESIAN_POINT('',(0.118110236220472,-0.137740157480315,0.347));
#772=CARTESIAN_POINT('',(0.,-0.137740157480315,0.347));
#773=CARTESIAN_POINT('',(0.118110236220472,-0.137740157480315,0.544));
#774=CARTESIAN_POINT('',(0.0198602362204725,-0.137740157480315,0.484));
#775=CARTESIAN_POINT('Origin',(0.0581102362204725,-0.137740157480315,0.484));
#776=CARTESIAN_POINT('Origin',(-0.0581102362204725,0.516771516524864,0.407));
#777=CARTESIAN_POINT('',(-0.0813602362204725,0.516771516524864,0.407));
#778=CARTESIAN_POINT('Origin',(0.0581102362204725,-0.130240157480315,0.484));
#779=CARTESIAN_POINT('',(0.0348602362204725,-0.122740157480315,0.484));
#780=CARTESIAN_POINT('',(0.0273602362204725,-0.130240157480315,0.484));
#781=CARTESIAN_POINT('Origin',(0.0581102362204725,-0.122740157480315,0.484));
#782=CARTESIAN_POINT('Origin',(0.0581102362204725,0.516771516524864,0.484));
#783=CARTESIAN_POINT('',(0.0348602362204725,0.516771516524864,0.484));
#784=CARTESIAN_POINT('Origin',(0.,0.,0.01));
#785=CARTESIAN_POINT('',(-0.0765,9.36854801347725E-18,0.));
#786=CARTESIAN_POINT('Origin',(0.,0.,0.));
#787=CARTESIAN_POINT('',(-0.0565,-6.91925441518254E-18,0.02));
#788=CARTESIAN_POINT('',(-0.0665,8.1439012143299E-18,0.01));
#789=CARTESIAN_POINT('',(0.0565,-6.91925441518254E-18,0.02));
#790=CARTESIAN_POINT('Origin',(0.,0.,0.02));
#791=CARTESIAN_POINT('Origin',(0.,0.,0.02));
#792=CARTESIAN_POINT('Origin',(0.,0.,0.07));
#793=CARTESIAN_POINT('',(0.0565,-6.91925441518254E-18,0.14));
#794=CARTESIAN_POINT('',(0.0565,-6.91925441518254E-18,0.07));
#795=CARTESIAN_POINT('Origin',(0.,0.,0.14));
#796=CARTESIAN_POINT('Origin',(0.,0.0336299212598425,0.));
#797=CARTESIAN_POINT('Origin',(0.,0.,0.));
#798=CARTESIAN_POINT('Origin',(0.,0.,0.156974312487529));
#799=CARTESIAN_POINT('',(0.,0.,0.173948624975057));
#800=CARTESIAN_POINT('',(0.02825,-3.45962720759127E-18,0.156974312487529));
#801=CARTESIAN_POINT('Origin',(0.118110236220472,0.00612992125984264,0.4455));
#802=CARTESIAN_POINT('',(0.118110236220472,-0.192740157480315,0.347));
#803=CARTESIAN_POINT('Origin',(0.,0.15,0.347));
#804=CARTESIAN_POINT('Origin',(0.,0.,0.));
#805=UNCERTAINTY_MEASURE_WITH_UNIT(LENGTH_MEASURE(0.000393700787401575),
#811,'DISTANCE_ACCURACY_VALUE',
'Maximum model space distance between geometric entities at asserted c
onnectivities');
#806=UNCERTAINTY_MEASURE_WITH_UNIT(LENGTH_MEASURE(0.000393700787401575),
#811,'DISTANCE_ACCURACY_VALUE',
'Maximum model space distance between geometric entities at asserted c
onnectivities');
#807=(
GEOMETRIC_REPRESENTATION_CONTEXT(3)
GLOBAL_UNCERTAINTY_ASSIGNED_CONTEXT((#805))
GLOBAL_UNIT_ASSIGNED_CONTEXT((#811,#815,#816))
REPRESENTATION_CONTEXT('','3D')
);
#808=(
GEOMETRIC_REPRESENTATION_CONTEXT(3)
GLOBAL_UNCERTAINTY_ASSIGNED_CONTEXT((#806))
GLOBAL_UNIT_ASSIGNED_CONTEXT((#811,#815,#816))
REPRESENTATION_CONTEXT('','3D')
);
#809=DIMENSIONAL_EXPONENTS(1.,0.,0.,0.,0.,0.,0.);
#810=DIMENSIONAL_EXPONENTS(0.,1.,0.,0.,0.,0.,0.);
#811=(
CONVERSION_BASED_UNIT('inch',#814)
LENGTH_UNIT()
NAMED_UNIT(#809)
);
#812=(
LENGTH_UNIT()
NAMED_UNIT(*)
SI_UNIT(.MILLI.,.METRE.)
);
#813=(
LENGTH_UNIT()
NAMED_UNIT(*)
SI_UNIT(.CENTI.,.METRE.)
);
#814=LENGTH_MEASURE_WITH_UNIT(LENGTH_MEASURE(25.4),#812);
#815=(
NAMED_UNIT(*)
PLANE_ANGLE_UNIT()
SI_UNIT($,.RADIAN.)
);
#816=(
NAMED_UNIT(*)
SI_UNIT($,.STERADIAN.)
SOLID_ANGLE_UNIT()
);
#817=SHAPE_DEFINITION_REPRESENTATION(#818,#819);
#818=PRODUCT_DEFINITION_SHAPE('',$,#821);
#819=SHAPE_REPRESENTATION('',(#452),#807);
#820=PRODUCT_DEFINITION_CONTEXT('part definition',#825,'design');
#821=PRODUCT_DEFINITION('J010336','LIGHTSHEETHOLDER V20M',#822,#820);
#822=PRODUCT_DEFINITION_FORMATION('A',$,#827);
#823=PRODUCT_RELATED_PRODUCT_CATEGORY('LIGHTSHEETHOLDER V20M',
'LIGHTSHEETHOLDER V20M',(#827));
#824=APPLICATION_PROTOCOL_DEFINITION('international standard',
'automotive_design',2009,#825);
#825=APPLICATION_CONTEXT(
'Core Data for Automotive Mechanical Design Process');
#826=PRODUCT_CONTEXT('part definition',#825,'mechanical');
#827=PRODUCT('J010336','LIGHTSHEETHOLDER V20M',
'Machined Lightsheet Holder. Attach disposable slips to the holder wit
h 0-80 screws',(#826));
#828=PRESENTATION_STYLE_ASSIGNMENT((#830));
#829=PRESENTATION_STYLE_ASSIGNMENT((#831));
#830=SURFACE_STYLE_USAGE(.BOTH.,#836);
#831=SURFACE_STYLE_USAGE(.BOTH.,#837);
#832=SURFACE_STYLE_RENDERING_WITH_PROPERTIES($,#844,(#834));
#833=SURFACE_STYLE_RENDERING_WITH_PROPERTIES($,#845,(#835));
#834=SURFACE_STYLE_TRANSPARENT(0.);
#835=SURFACE_STYLE_TRANSPARENT(0.339999973773956);
#836=SURFACE_SIDE_STYLE('',(#838,#832));
#837=SURFACE_SIDE_STYLE('',(#839,#833));
#838=SURFACE_STYLE_FILL_AREA(#840);
#839=SURFACE_STYLE_FILL_AREA(#841);
#840=FILL_AREA_STYLE('',(#842));
#841=FILL_AREA_STYLE('',(#843));
#842=FILL_AREA_STYLE_COLOUR('',#844);
#843=FILL_AREA_STYLE_COLOUR('',#845);
#844=COLOUR_RGB('',0.996078431372549,0.996078431372549,1.);
#845=COLOUR_RGB('',0.925490196078431,0.945098039215686,0.937254901960784);
ENDSEC;
END-ISO-10303-21;
