ISO-10303-21;
HEADER;
/* Generated by software containing ST-Developer
 * from STEP Tools, Inc. (www.steptools.com) 
 */

FILE_DESCRIPTION(
/* description */ (
'Machined Lightsheet Holder. Attach disposable slips to the holder wit
h 0-80 screws'),
/* implementation_level */ '2;1');

FILE_NAME(
/* name */ 
'C:\\_WORKSPACE\\DATA\\PROJECTS\\_PROJECTS BY LAB\\AIC\\DESANTIS\\LIGH
TSHEETHOLDER\\LIGHTSHEETHOLDER V20M - PLATFORM.stp',
/* time_stamp */ '2022-10-31T18:16:28-04:00',
/* author */ ('talbotj'),
/* organization */ (''),
/* preprocessor_version */ 'ST-DEVELOPER v18.1',
/* originating_system */ 'Autodesk Inventor 2020',
/* authorisation */ '');

FILE_SCHEMA (('AUTOMOTIVE_DESIGN { 1 0 10303 214 3 1 1 }'));
ENDSEC;

DATA;
#10=MECHANICAL_DESIGN_GEOMETRIC_PRESENTATION_REPRESENTATION('',(#13),#427);
#11=SHAPE_REPRESENTATION_RELATIONSHIP('SRR','None',#437,#12);
#12=ADVANCED_BREP_SHAPE_REPRESENTATION('',(#14),#426);
#13=STYLED_ITEM('',(#447),#14);
#14=MANIFOLD_SOLID_BREP('Solid4',#239);
#15=FACE_BOUND('',#39,.T.);
#16=FACE_BOUND('',#40,.T.);
#17=FACE_BOUND('',#51,.T.);
#18=FACE_BOUND('',#52,.T.);
#19=PLANE('',#262);
#20=PLANE('',#270);
#21=PLANE('',#275);
#22=PLANE('',#278);
#23=PLANE('',#283);
#24=PLANE('',#284);
#25=FACE_OUTER_BOUND('',#37,.T.);
#26=FACE_OUTER_BOUND('',#38,.T.);
#27=FACE_OUTER_BOUND('',#41,.T.);
#28=FACE_OUTER_BOUND('',#42,.T.);
#29=FACE_OUTER_BOUND('',#43,.T.);
#30=FACE_OUTER_BOUND('',#44,.T.);
#31=FACE_OUTER_BOUND('',#45,.T.);
#32=FACE_OUTER_BOUND('',#46,.T.);
#33=FACE_OUTER_BOUND('',#47,.T.);
#34=FACE_OUTER_BOUND('',#48,.T.);
#35=FACE_OUTER_BOUND('',#49,.T.);
#36=FACE_OUTER_BOUND('',#50,.T.);
#37=EDGE_LOOP('',(#157,#158,#159,#160));
#38=EDGE_LOOP('',(#161,#162,#163,#164,#165,#166,#167,#168));
#39=EDGE_LOOP('',(#169,#170));
#40=EDGE_LOOP('',(#171,#172));
#41=EDGE_LOOP('',(#173,#174,#175,#176));
#42=EDGE_LOOP('',(#177,#178,#179,#180));
#43=EDGE_LOOP('',(#181,#182,#183,#184));
#44=EDGE_LOOP('',(#185,#186,#187,#188));
#45=EDGE_LOOP('',(#189,#190,#191,#192));
#46=EDGE_LOOP('',(#193,#194,#195,#196));
#47=EDGE_LOOP('',(#197,#198,#199,#200,#201));
#48=EDGE_LOOP('',(#202,#203,#204,#205,#206));
#49=EDGE_LOOP('',(#207,#208,#209,#210));
#50=EDGE_LOOP('',(#211,#212,#213,#214,#215,#216,#217,#218));
#51=EDGE_LOOP('',(#219));
#52=EDGE_LOOP('',(#220));
#53=LINE('',#363,#71);
#54=LINE('',#366,#72);
#55=LINE('',#369,#73);
#56=LINE('',#373,#74);
#57=LINE('',#377,#75);
#58=LINE('',#380,#76);
#59=LINE('',#391,#77);
#60=LINE('',#392,#78);
#61=LINE('',#396,#79);
#62=LINE('',#401,#80);
#63=LINE('',#402,#81);
#64=LINE('',#405,#82);
#65=LINE('',#406,#83);
#66=LINE('',#409,#84);
#67=LINE('',#412,#85);
#68=LINE('',#415,#86);
#69=LINE('',#419,#87);
#70=LINE('',#422,#88);
#71=VECTOR('',#291,0.393700787401575);
#72=VECTOR('',#294,0.393700787401575);
#73=VECTOR('',#297,0.393700787401575);
#74=VECTOR('',#300,0.393700787401575);
#75=VECTOR('',#303,0.393700787401575);
#76=VECTOR('',#306,0.393700787401575);
#77=VECTOR('',#317,0.393700787401575);
#78=VECTOR('',#318,0.393700787401575);
#79=VECTOR('',#323,0.393700787401575);
#80=VECTOR('',#328,0.393700787401575);
#81=VECTOR('',#329,0.393700787401575);
#82=VECTOR('',#332,0.393700787401575);
#83=VECTOR('',#333,0.393700787401575);
#84=VECTOR('',#336,0.393700787401575);
#85=VECTOR('',#341,0.393700787401575);
#86=VECTOR('',#344,0.032);
#87=VECTOR('',#349,0.032);
#88=VECTOR('',#354,0.393700787401575);
#89=CIRCLE('',#260,0.02);
#90=CIRCLE('',#261,0.02);
#91=CIRCLE('',#263,0.02);
#92=CIRCLE('',#264,0.02);
#93=CIRCLE('',#265,0.02);
#94=CIRCLE('',#266,0.032);
#95=CIRCLE('',#267,0.032);
#96=CIRCLE('',#268,0.032);
#97=CIRCLE('',#269,0.032);
#98=CIRCLE('',#272,0.02);
#99=CIRCLE('',#274,0.02);
#100=CIRCLE('',#277,0.02);
#101=CIRCLE('',#280,0.032);
#102=CIRCLE('',#282,0.032);
#103=VERTEX_POINT('',#359);
#104=VERTEX_POINT('',#360);
#105=VERTEX_POINT('',#362);
#106=VERTEX_POINT('',#364);
#107=VERTEX_POINT('',#368);
#108=VERTEX_POINT('',#370);
#109=VERTEX_POINT('',#372);
#110=VERTEX_POINT('',#374);
#111=VERTEX_POINT('',#376);
#112=VERTEX_POINT('',#378);
#113=VERTEX_POINT('',#381);
#114=VERTEX_POINT('',#382);
#115=VERTEX_POINT('',#385);
#116=VERTEX_POINT('',#386);
#117=VERTEX_POINT('',#390);
#118=VERTEX_POINT('',#394);
#119=VERTEX_POINT('',#398);
#120=VERTEX_POINT('',#399);
#121=VERTEX_POINT('',#404);
#122=VERTEX_POINT('',#408);
#123=VERTEX_POINT('',#414);
#124=VERTEX_POINT('',#418);
#125=EDGE_CURVE('',#103,#104,#89,.T.);
#126=EDGE_CURVE('',#104,#105,#53,.T.);
#127=EDGE_CURVE('',#105,#106,#90,.T.);
#128=EDGE_CURVE('',#106,#103,#54,.T.);
#129=EDGE_CURVE('',#107,#103,#55,.T.);
#130=EDGE_CURVE('',#108,#107,#91,.T.);
#131=EDGE_CURVE('',#109,#108,#56,.T.);
#132=EDGE_CURVE('',#110,#109,#92,.T.);
#133=EDGE_CURVE('',#111,#110,#57,.T.);
#134=EDGE_CURVE('',#112,#111,#93,.T.);
#135=EDGE_CURVE('',#104,#112,#58,.T.);
#136=EDGE_CURVE('',#113,#114,#94,.T.);
#137=EDGE_CURVE('',#114,#113,#95,.T.);
#138=EDGE_CURVE('',#115,#116,#96,.T.);
#139=EDGE_CURVE('',#116,#115,#97,.T.);
#140=EDGE_CURVE('',#106,#117,#59,.T.);
#141=EDGE_CURVE('',#107,#117,#60,.T.);
#142=EDGE_CURVE('',#117,#118,#98,.T.);
#143=EDGE_CURVE('',#118,#108,#61,.T.);
#144=EDGE_CURVE('',#119,#120,#99,.T.);
#145=EDGE_CURVE('',#120,#112,#62,.T.);
#146=EDGE_CURVE('',#111,#119,#63,.T.);
#147=EDGE_CURVE('',#121,#110,#64,.T.);
#148=EDGE_CURVE('',#119,#121,#65,.T.);
#149=EDGE_CURVE('',#109,#122,#66,.T.);
#150=EDGE_CURVE('',#122,#121,#100,.T.);
#151=EDGE_CURVE('',#118,#122,#67,.T.);
#152=EDGE_CURVE('',#114,#123,#68,.T.);
#153=EDGE_CURVE('',#123,#123,#101,.T.);
#154=EDGE_CURVE('',#116,#124,#69,.T.);
#155=EDGE_CURVE('',#124,#124,#102,.T.);
#156=EDGE_CURVE('',#120,#105,#70,.T.);
#157=ORIENTED_EDGE('',*,*,#125,.T.);
#158=ORIENTED_EDGE('',*,*,#126,.T.);
#159=ORIENTED_EDGE('',*,*,#127,.T.);
#160=ORIENTED_EDGE('',*,*,#128,.T.);
#161=ORIENTED_EDGE('',*,*,#125,.F.);
#162=ORIENTED_EDGE('',*,*,#129,.F.);
#163=ORIENTED_EDGE('',*,*,#130,.F.);
#164=ORIENTED_EDGE('',*,*,#131,.F.);
#165=ORIENTED_EDGE('',*,*,#132,.F.);
#166=ORIENTED_EDGE('',*,*,#133,.F.);
#167=ORIENTED_EDGE('',*,*,#134,.F.);
#168=ORIENTED_EDGE('',*,*,#135,.F.);
#169=ORIENTED_EDGE('',*,*,#136,.T.);
#170=ORIENTED_EDGE('',*,*,#137,.T.);
#171=ORIENTED_EDGE('',*,*,#138,.T.);
#172=ORIENTED_EDGE('',*,*,#139,.T.);
#173=ORIENTED_EDGE('',*,*,#128,.F.);
#174=ORIENTED_EDGE('',*,*,#140,.T.);
#175=ORIENTED_EDGE('',*,*,#141,.F.);
#176=ORIENTED_EDGE('',*,*,#129,.T.);
#177=ORIENTED_EDGE('',*,*,#142,.T.);
#178=ORIENTED_EDGE('',*,*,#143,.T.);
#179=ORIENTED_EDGE('',*,*,#130,.T.);
#180=ORIENTED_EDGE('',*,*,#141,.T.);
#181=ORIENTED_EDGE('',*,*,#144,.T.);
#182=ORIENTED_EDGE('',*,*,#145,.T.);
#183=ORIENTED_EDGE('',*,*,#134,.T.);
#184=ORIENTED_EDGE('',*,*,#146,.T.);
#185=ORIENTED_EDGE('',*,*,#146,.F.);
#186=ORIENTED_EDGE('',*,*,#133,.T.);
#187=ORIENTED_EDGE('',*,*,#147,.F.);
#188=ORIENTED_EDGE('',*,*,#148,.F.);
#189=ORIENTED_EDGE('',*,*,#132,.T.);
#190=ORIENTED_EDGE('',*,*,#149,.T.);
#191=ORIENTED_EDGE('',*,*,#150,.T.);
#192=ORIENTED_EDGE('',*,*,#147,.T.);
#193=ORIENTED_EDGE('',*,*,#143,.F.);
#194=ORIENTED_EDGE('',*,*,#151,.T.);
#195=ORIENTED_EDGE('',*,*,#149,.F.);
#196=ORIENTED_EDGE('',*,*,#131,.T.);
#197=ORIENTED_EDGE('',*,*,#136,.F.);
#198=ORIENTED_EDGE('',*,*,#137,.F.);
#199=ORIENTED_EDGE('',*,*,#152,.T.);
#200=ORIENTED_EDGE('',*,*,#153,.F.);
#201=ORIENTED_EDGE('',*,*,#152,.F.);
#202=ORIENTED_EDGE('',*,*,#138,.F.);
#203=ORIENTED_EDGE('',*,*,#139,.F.);
#204=ORIENTED_EDGE('',*,*,#154,.T.);
#205=ORIENTED_EDGE('',*,*,#155,.F.);
#206=ORIENTED_EDGE('',*,*,#154,.F.);
#207=ORIENTED_EDGE('',*,*,#126,.F.);
#208=ORIENTED_EDGE('',*,*,#135,.T.);
#209=ORIENTED_EDGE('',*,*,#145,.F.);
#210=ORIENTED_EDGE('',*,*,#156,.T.);
#211=ORIENTED_EDGE('',*,*,#127,.F.);
#212=ORIENTED_EDGE('',*,*,#156,.F.);
#213=ORIENTED_EDGE('',*,*,#144,.F.);
#214=ORIENTED_EDGE('',*,*,#148,.T.);
#215=ORIENTED_EDGE('',*,*,#150,.F.);
#216=ORIENTED_EDGE('',*,*,#151,.F.);
#217=ORIENTED_EDGE('',*,*,#142,.F.);
#218=ORIENTED_EDGE('',*,*,#140,.F.);
#219=ORIENTED_EDGE('',*,*,#153,.T.);
#220=ORIENTED_EDGE('',*,*,#155,.T.);
#221=CYLINDRICAL_SURFACE('',#259,0.02);
#222=CYLINDRICAL_SURFACE('',#271,0.02);
#223=CYLINDRICAL_SURFACE('',#273,0.02);
#224=CYLINDRICAL_SURFACE('',#276,0.02);
#225=CYLINDRICAL_SURFACE('',#279,0.032);
#226=CYLINDRICAL_SURFACE('',#281,0.032);
#227=ADVANCED_FACE('',(#25),#221,.T.);
#228=ADVANCED_FACE('',(#26,#15,#16),#19,.T.);
#229=ADVANCED_FACE('',(#27),#20,.T.);
#230=ADVANCED_FACE('',(#28),#222,.T.);
#231=ADVANCED_FACE('',(#29),#223,.T.);
#232=ADVANCED_FACE('',(#30),#21,.T.);
#233=ADVANCED_FACE('',(#31),#224,.T.);
#234=ADVANCED_FACE('',(#32),#22,.T.);
#235=ADVANCED_FACE('',(#33),#225,.F.);
#236=ADVANCED_FACE('',(#34),#226,.F.);
#237=ADVANCED_FACE('',(#35),#23,.T.);
#238=ADVANCED_FACE('',(#36,#17,#18),#24,.T.);
#239=CLOSED_SHELL('',(#227,#228,#229,#230,#231,#232,#233,#234,#235,#236,
#237,#238));
#240=DERIVED_UNIT_ELEMENT(#242,1.);
#241=DERIVED_UNIT_ELEMENT(#431,3.);
#242=(
MASS_UNIT()
NAMED_UNIT(*)
SI_UNIT($,.GRAM.)
);
#243=DERIVED_UNIT((#240,#241));
#244=MEASURE_REPRESENTATION_ITEM('density measure',
POSITIVE_RATIO_MEASURE(2.7),#243);
#245=PROPERTY_DEFINITION_REPRESENTATION(#250,#247);
#246=PROPERTY_DEFINITION_REPRESENTATION(#251,#248);
#247=REPRESENTATION('material name',(#249),#426);
#248=REPRESENTATION('density',(#244),#426);
#249=DESCRIPTIVE_REPRESENTATION_ITEM('Aluminum 6061','Aluminum 6061');
#250=PROPERTY_DEFINITION('material property','material name',#439);
#251=PROPERTY_DEFINITION('material property','density of part',#439);
#252=DATE_TIME_ROLE('creation_date');
#253=APPLIED_DATE_AND_TIME_ASSIGNMENT(#254,#252,(#439));
#254=DATE_AND_TIME(#255,#256);
#255=CALENDAR_DATE(2021,27,9);
#256=LOCAL_TIME(21,44,58.,#257);
#257=COORDINATED_UNIVERSAL_TIME_OFFSET(0,0,.BEHIND.);
#258=AXIS2_PLACEMENT_3D('placement',#357,#285,#286);
#259=AXIS2_PLACEMENT_3D('',#358,#287,#288);
#260=AXIS2_PLACEMENT_3D('',#361,#289,#290);
#261=AXIS2_PLACEMENT_3D('',#365,#292,#293);
#262=AXIS2_PLACEMENT_3D('',#367,#295,#296);
#263=AXIS2_PLACEMENT_3D('',#371,#298,#299);
#264=AXIS2_PLACEMENT_3D('',#375,#301,#302);
#265=AXIS2_PLACEMENT_3D('',#379,#304,#305);
#266=AXIS2_PLACEMENT_3D('',#383,#307,#308);
#267=AXIS2_PLACEMENT_3D('',#384,#309,#310);
#268=AXIS2_PLACEMENT_3D('',#387,#311,#312);
#269=AXIS2_PLACEMENT_3D('',#388,#313,#314);
#270=AXIS2_PLACEMENT_3D('',#389,#315,#316);
#271=AXIS2_PLACEMENT_3D('',#393,#319,#320);
#272=AXIS2_PLACEMENT_3D('',#395,#321,#322);
#273=AXIS2_PLACEMENT_3D('',#397,#324,#325);
#274=AXIS2_PLACEMENT_3D('',#400,#326,#327);
#275=AXIS2_PLACEMENT_3D('',#403,#330,#331);
#276=AXIS2_PLACEMENT_3D('',#407,#334,#335);
#277=AXIS2_PLACEMENT_3D('',#410,#337,#338);
#278=AXIS2_PLACEMENT_3D('',#411,#339,#340);
#279=AXIS2_PLACEMENT_3D('',#413,#342,#343);
#280=AXIS2_PLACEMENT_3D('',#416,#345,#346);
#281=AXIS2_PLACEMENT_3D('',#417,#347,#348);
#282=AXIS2_PLACEMENT_3D('',#420,#350,#351);
#283=AXIS2_PLACEMENT_3D('',#421,#352,#353);
#284=AXIS2_PLACEMENT_3D('',#423,#355,#356);
#285=DIRECTION('axis',(0.,0.,1.));
#286=DIRECTION('refdir',(1.,0.,0.));
#287=DIRECTION('center_axis',(0.,-1.,-2.55059507587106E-16));
#288=DIRECTION('ref_axis',(-0.707106781186548,0.,-0.707106781186547));
#289=DIRECTION('center_axis',(0.,1.,3.13955395919915E-16));
#290=DIRECTION('ref_axis',(-0.707106781186548,0.,-0.707106781186547));
#291=DIRECTION('',(0.,1.,2.55059507587106E-16));
#292=DIRECTION('center_axis',(0.,-1.,-2.21875979180854E-16));
#293=DIRECTION('ref_axis',(-0.707106781186548,0.,-0.707106781186547));
#294=DIRECTION('',(0.,-1.,-2.55059507587106E-16));
#295=DIRECTION('center_axis',(0.,-1.,-3.13955395919915E-16));
#296=DIRECTION('ref_axis',(0.,3.13955395919915E-16,-1.));
#297=DIRECTION('',(-1.,0.,0.));
#298=DIRECTION('center_axis',(0.,1.,3.13955395919915E-16));
#299=DIRECTION('ref_axis',(0.707106781186548,0.,-0.707106781186547));
#300=DIRECTION('',(0.,3.13955395919915E-16,-1.));
#301=DIRECTION('center_axis',(0.,1.,3.13955395919915E-16));
#302=DIRECTION('ref_axis',(0.707106781186544,0.,0.707106781186551));
#303=DIRECTION('',(1.,0.,0.));
#304=DIRECTION('center_axis',(0.,1.,3.13955395919915E-16));
#305=DIRECTION('ref_axis',(-0.707106781186544,0.,0.707106781186551));
#306=DIRECTION('',(0.,-3.13955395919915E-16,1.));
#307=DIRECTION('center_axis',(0.,1.,3.13955395919915E-16));
#308=DIRECTION('ref_axis',(1.,0.,0.));
#309=DIRECTION('center_axis',(0.,1.,3.13955395919915E-16));
#310=DIRECTION('ref_axis',(1.,0.,0.));
#311=DIRECTION('center_axis',(0.,1.,3.13955395919915E-16));
#312=DIRECTION('ref_axis',(1.,0.,0.));
#313=DIRECTION('center_axis',(0.,1.,3.13955395919915E-16));
#314=DIRECTION('ref_axis',(1.,0.,0.));
#315=DIRECTION('center_axis',(0.,2.55059507587106E-16,-1.));
#316=DIRECTION('ref_axis',(0.,1.,2.55059507587106E-16));
#317=DIRECTION('',(1.,0.,0.));
#318=DIRECTION('',(0.,1.,2.55059507587106E-16));
#319=DIRECTION('center_axis',(0.,1.,2.55059507587106E-16));
#320=DIRECTION('ref_axis',(0.707106781186548,0.,-0.707106781186547));
#321=DIRECTION('center_axis',(0.,-1.,-2.21875979180854E-16));
#322=DIRECTION('ref_axis',(0.707106781186548,0.,-0.707106781186547));
#323=DIRECTION('',(0.,-1.,-2.55059507587106E-16));
#324=DIRECTION('center_axis',(0.,1.,0.));
#325=DIRECTION('ref_axis',(-0.707106781186544,0.,0.707106781186551));
#326=DIRECTION('center_axis',(0.,-1.,-2.21875979180854E-16));
#327=DIRECTION('ref_axis',(-0.707106781186544,0.,0.707106781186551));
#328=DIRECTION('',(0.,-1.,0.));
#329=DIRECTION('',(0.,1.,0.));
#330=DIRECTION('center_axis',(0.,0.,1.));
#331=DIRECTION('ref_axis',(0.,-1.,0.));
#332=DIRECTION('',(0.,-1.,0.));
#333=DIRECTION('',(1.,0.,0.));
#334=DIRECTION('center_axis',(0.,-1.,0.));
#335=DIRECTION('ref_axis',(0.707106781186544,0.,0.707106781186551));
#336=DIRECTION('',(0.,1.,0.));
#337=DIRECTION('center_axis',(0.,-1.,-2.21875979180854E-16));
#338=DIRECTION('ref_axis',(0.707106781186544,0.,0.707106781186551));
#339=DIRECTION('center_axis',(1.,0.,0.));
#340=DIRECTION('ref_axis',(0.,0.,-1.));
#341=DIRECTION('',(0.,-2.21875979180854E-16,1.));
#342=DIRECTION('center_axis',(0.,-1.,-1.10937989590427E-16));
#343=DIRECTION('ref_axis',(1.,0.,0.));
#344=DIRECTION('',(0.,1.,1.10937989590427E-16));
#345=DIRECTION('center_axis',(0.,-1.,-2.21875979180854E-16));
#346=DIRECTION('ref_axis',(1.,0.,0.));
#347=DIRECTION('center_axis',(0.,-1.,-1.10937989590427E-16));
#348=DIRECTION('ref_axis',(1.,0.,0.));
#349=DIRECTION('',(0.,1.,1.10937989590427E-16));
#350=DIRECTION('center_axis',(0.,-1.,-2.21875979180854E-16));
#351=DIRECTION('ref_axis',(1.,0.,0.));
#352=DIRECTION('center_axis',(-1.,0.,0.));
#353=DIRECTION('ref_axis',(0.,0.,1.));
#354=DIRECTION('',(0.,2.21875979180854E-16,-1.));
#355=DIRECTION('center_axis',(0.,1.,2.21875979180854E-16));
#356=DIRECTION('ref_axis',(0.,-2.21875979180854E-16,1.));
#357=CARTESIAN_POINT('',(0.,0.,0.));
#358=CARTESIAN_POINT('Origin',(-0.0981102362204724,-0.178990157480315,0.367));
#359=CARTESIAN_POINT('',(-0.0981102362204724,-0.192740157480315,0.347));
#360=CARTESIAN_POINT('',(-0.118110236220472,-0.192740157480315,0.367));
#361=CARTESIAN_POINT('Origin',(-0.0981102362204724,-0.192740157480315,0.367));
#362=CARTESIAN_POINT('',(-0.118110236220472,-0.137740157480315,0.367));
#363=CARTESIAN_POINT('',(-0.118110236220472,-0.178990157480315,0.367));
#364=CARTESIAN_POINT('',(-0.0981102362204724,-0.137740157480315,0.347));
#365=CARTESIAN_POINT('Origin',(-0.0981102362204724,-0.137740157480315,0.367));
#366=CARTESIAN_POINT('',(-0.0981102362204724,-0.178990157480315,0.347));
#367=CARTESIAN_POINT('Origin',(0.,-0.192740157480315,1.6));
#368=CARTESIAN_POINT('',(0.0981102362204724,-0.192740157480315,0.347));
#369=CARTESIAN_POINT('',(0.,-0.192740157480315,0.347));
#370=CARTESIAN_POINT('',(0.118110236220472,-0.192740157480315,0.367));
#371=CARTESIAN_POINT('Origin',(0.0981102362204724,-0.192740157480315,0.367));
#372=CARTESIAN_POINT('',(0.118110236220472,-0.192740157480315,1.58));
#373=CARTESIAN_POINT('',(0.118110236220472,-0.192740157480315,1.6));
#374=CARTESIAN_POINT('',(0.0981102362204724,-0.192740157480315,1.6));
#375=CARTESIAN_POINT('Origin',(0.0981102362204724,-0.192740157480315,1.58));
#376=CARTESIAN_POINT('',(-0.0981102362204724,-0.192740157480315,1.6));
#377=CARTESIAN_POINT('',(0.,-0.192740157480315,1.6));
#378=CARTESIAN_POINT('',(-0.118110236220472,-0.192740157480315,1.58));
#379=CARTESIAN_POINT('Origin',(-0.0981102362204724,-0.192740157480315,1.58));
#380=CARTESIAN_POINT('',(-0.118110236220472,-0.192740157480315,1.6));
#381=CARTESIAN_POINT('',(0.0901102362204725,-0.192740157480315,0.484));
#382=CARTESIAN_POINT('',(0.0261102362204725,-0.192740157480315,0.484));
#383=CARTESIAN_POINT('Origin',(0.0581102362204725,-0.192740157480315,0.484));
#384=CARTESIAN_POINT('Origin',(0.0581102362204725,-0.192740157480315,0.484));
#385=CARTESIAN_POINT('',(-0.0261102362204725,-0.192740157480315,0.407));
#386=CARTESIAN_POINT('',(-0.0901102362204725,-0.192740157480315,0.407));
#387=CARTESIAN_POINT('Origin',(-0.0581102362204725,-0.192740157480315,0.407));
#388=CARTESIAN_POINT('Origin',(-0.0581102362204725,-0.192740157480315,0.407));
#389=CARTESIAN_POINT('Origin',(0.,-0.192740157480315,0.347));
#390=CARTESIAN_POINT('',(0.0981102362204724,-0.137740157480315,0.347));
#391=CARTESIAN_POINT('',(0.,-0.137740157480315,0.347));
#392=CARTESIAN_POINT('',(0.0981102362204724,-0.178990157480315,0.347));
#393=CARTESIAN_POINT('Origin',(0.0981102362204724,-0.178990157480315,0.367));
#394=CARTESIAN_POINT('',(0.118110236220472,-0.137740157480315,0.367));
#395=CARTESIAN_POINT('Origin',(0.0981102362204724,-0.137740157480315,0.367));
#396=CARTESIAN_POINT('',(0.118110236220472,-0.178990157480315,0.367));
#397=CARTESIAN_POINT('Origin',(-0.0981102362204724,-0.151490157480315,1.58));
#398=CARTESIAN_POINT('',(-0.0981102362204724,-0.137740157480315,1.6));
#399=CARTESIAN_POINT('',(-0.118110236220472,-0.137740157480315,1.58));
#400=CARTESIAN_POINT('Origin',(-0.0981102362204724,-0.137740157480315,1.58));
#401=CARTESIAN_POINT('',(-0.118110236220472,-0.151490157480315,1.58));
#402=CARTESIAN_POINT('',(-0.0981102362204724,-0.151490157480315,1.6));
#403=CARTESIAN_POINT('Origin',(0.,-0.137740157480315,1.6));
#404=CARTESIAN_POINT('',(0.0981102362204724,-0.137740157480315,1.6));
#405=CARTESIAN_POINT('',(0.0981102362204724,-0.151490157480315,1.6));
#406=CARTESIAN_POINT('',(0.,-0.137740157480315,1.6));
#407=CARTESIAN_POINT('Origin',(0.0981102362204724,-0.151490157480315,1.58));
#408=CARTESIAN_POINT('',(0.118110236220472,-0.137740157480315,1.58));
#409=CARTESIAN_POINT('',(0.118110236220472,-0.151490157480315,1.58));
#410=CARTESIAN_POINT('Origin',(0.0981102362204724,-0.137740157480315,1.58));
#411=CARTESIAN_POINT('Origin',(0.118110236220472,-0.165240157480315,0.9735));
#412=CARTESIAN_POINT('',(0.118110236220472,-0.137740157480315,0.347));
#413=CARTESIAN_POINT('Origin',(0.0581102362204725,1.08351769718708,0.484));
#414=CARTESIAN_POINT('',(0.0261102362204725,-0.137740157480315,0.484));
#415=CARTESIAN_POINT('',(0.0261102362204725,1.08351769718708,0.484));
#416=CARTESIAN_POINT('Origin',(0.0581102362204725,-0.137740157480315,0.484));
#417=CARTESIAN_POINT('Origin',(-0.0581102362204725,1.08351769718708,0.407));
#418=CARTESIAN_POINT('',(-0.0901102362204725,-0.137740157480315,0.407));
#419=CARTESIAN_POINT('',(-0.0901102362204725,1.08351769718708,0.407));
#420=CARTESIAN_POINT('Origin',(-0.0581102362204725,-0.137740157480315,0.407));
#421=CARTESIAN_POINT('Origin',(-0.118110236220472,-0.165240157480315,0.9735));
#422=CARTESIAN_POINT('',(-0.118110236220472,-0.137740157480315,0.347));
#423=CARTESIAN_POINT('Origin',(0.,-0.137740157480315,0.347));
#424=UNCERTAINTY_MEASURE_WITH_UNIT(LENGTH_MEASURE(0.000393700787401575),
#429,'DISTANCE_ACCURACY_VALUE',
'Maximum model space distance between geometric entities at asserted c
onnectivities');
#425=UNCERTAINTY_MEASURE_WITH_UNIT(LENGTH_MEASURE(0.000393700787401575),
#429,'DISTANCE_ACCURACY_VALUE',
'Maximum model space distance between geometric entities at asserted c
onnectivities');
#426=(
GEOMETRIC_REPRESENTATION_CONTEXT(3)
GLOBAL_UNCERTAINTY_ASSIGNED_CONTEXT((#424))
GLOBAL_UNIT_ASSIGNED_CONTEXT((#429,#433,#434))
REPRESENTATION_CONTEXT('','3D')
);
#427=(
GEOMETRIC_REPRESENTATION_CONTEXT(3)
GLOBAL_UNCERTAINTY_ASSIGNED_CONTEXT((#425))
GLOBAL_UNIT_ASSIGNED_CONTEXT((#429,#433,#434))
REPRESENTATION_CONTEXT('','3D')
);
#428=DIMENSIONAL_EXPONENTS(1.,0.,0.,0.,0.,0.,0.);
#429=(
CONVERSION_BASED_UNIT('inch',#432)
LENGTH_UNIT()
NAMED_UNIT(#428)
);
#430=(
LENGTH_UNIT()
NAMED_UNIT(*)
SI_UNIT(.MILLI.,.METRE.)
);
#431=(
LENGTH_UNIT()
NAMED_UNIT(*)
SI_UNIT(.CENTI.,.METRE.)
);
#432=LENGTH_MEASURE_WITH_UNIT(LENGTH_MEASURE(25.4),#430);
#433=(
NAMED_UNIT(*)
PLANE_ANGLE_UNIT()
SI_UNIT($,.RADIAN.)
);
#434=(
NAMED_UNIT(*)
SI_UNIT($,.STERADIAN.)
SOLID_ANGLE_UNIT()
);
#435=SHAPE_DEFINITION_REPRESENTATION(#436,#437);
#436=PRODUCT_DEFINITION_SHAPE('',$,#439);
#437=SHAPE_REPRESENTATION('',(#258),#426);
#438=PRODUCT_DEFINITION_CONTEXT('part definition',#443,'design');
#439=PRODUCT_DEFINITION('J010336','LIGHTSHEETHOLDER V20M',#440,#438);
#440=PRODUCT_DEFINITION_FORMATION('-',$,#445);
#441=PRODUCT_RELATED_PRODUCT_CATEGORY('LIGHTSHEETHOLDER V20M',
'LIGHTSHEETHOLDER V20M',(#445));
#442=APPLICATION_PROTOCOL_DEFINITION('international standard',
'automotive_design',2009,#443);
#443=APPLICATION_CONTEXT(
'Core Data for Automotive Mechanical Design Process');
#444=PRODUCT_CONTEXT('part definition',#443,'mechanical');
#445=PRODUCT('J010336','LIGHTSHEETHOLDER V20M',
'Machined Lightsheet Holder. Attach disposable slips to the holder wit
h 0-80 screws',(#444));
#446=PRESENTATION_STYLE_ASSIGNMENT((#448));
#447=PRESENTATION_STYLE_ASSIGNMENT((#449));
#448=SURFACE_STYLE_USAGE(.BOTH.,#454);
#449=SURFACE_STYLE_USAGE(.BOTH.,#455);
#450=SURFACE_STYLE_RENDERING_WITH_PROPERTIES($,#462,(#452));
#451=SURFACE_STYLE_RENDERING_WITH_PROPERTIES($,#463,(#453));
#452=SURFACE_STYLE_TRANSPARENT(0.);
#453=SURFACE_STYLE_TRANSPARENT(0.339999973773956);
#454=SURFACE_SIDE_STYLE('',(#456,#450));
#455=SURFACE_SIDE_STYLE('',(#457,#451));
#456=SURFACE_STYLE_FILL_AREA(#458);
#457=SURFACE_STYLE_FILL_AREA(#459);
#458=FILL_AREA_STYLE('',(#460));
#459=FILL_AREA_STYLE('',(#461));
#460=FILL_AREA_STYLE_COLOUR('',#462);
#461=FILL_AREA_STYLE_COLOUR('',#463);
#462=COLOUR_RGB('',0.996078431372549,0.996078431372549,1.);
#463=COLOUR_RGB('',0.925490196078431,0.945098039215686,0.937254901960784);
ENDSEC;
END-ISO-10303-21;
